<?xml version="1.0" standalone="no"?>
<!DOCTYPE svg PUBLIC "-//W3C//DTD SVG 20010904//EN"
 "http://www.w3.org/TR/2001/REC-SVG-20010904/DTD/svg10.dtd">
<svg version="1.0" xmlns="http://www.w3.org/2000/svg"
 width="100.000000pt" height="100.000000pt" viewBox="0 0 100.000000 100.000000"
 preserveAspectRatio="xMidYMid meet">
<metadata>
Created by potrace 1.11, written by Peter Selinger 2001-2013
</metadata>
<g transform="translate(0.000000,100.000000) scale(0.100000,-0.100000)"
fill="#000000" stroke="none">
<path d="M380 988 c-19 -5 -39 -10 -45 -12 -5 -2 -20 -7 -32 -11 -13 -4 -23
-11 -23 -16 0 -5 -6 -9 -14 -9 -8 0 -18 -9 -21 -20 -3 -11 -11 -20 -16 -20 -5
0 -9 -9 -9 -19 0 -11 -6 -26 -12 -33 -100 -105 -149 -289 -102 -380 18 -34 98
-118 113 -118 21 0 21 -42 0 -90 -12 -29 -22 -57 -21 -64 2 -33 14 -61 33 -82
l21 -22 -20 -46 -21 -46 350 0 c192 0 349 2 349 4 0 3 -6 11 -12 18 -7 7 -23
32 -36 55 -21 40 -22 45 -8 65 18 26 21 61 6 88 -7 13 -6 19 4 23 24 9 46 73
46 134 0 48 -5 68 -29 106 -17 25 -33 63 -37 84 -10 58 -11 64 -27 131 -9 34
-25 83 -38 109 -26 54 -87 125 -100 117 -5 -3 -9 -2 -9 3 0 8 -50 33 -73 37
-6 1 -17 5 -24 9 -18 11 -154 15 -193 5z"/>
</g>
</svg>
